
<svg width="680" height="120" viewBox="0 0 680 120" xmlns="http://www.w3.org/2000/svg">
  <defs>
    <filter id="led_glow">
      <feGaussianBlur stdDeviation="2" result="blur"/>
      <feMerge><feMergeNode in="blur"/><feMergeNode in="blur"/><feMergeNode in="SourceGraphic"/></feMerge>
    </filter>
    <filter id="outer_glow">
      <feGaussianBlur stdDeviation="4" result="blur"/>
      <feMerge><feMergeNode in="blur"/><feMergeNode in="blur"/><feMergeNode in="SourceGraphic"/></feMerge>
    </filter>
  </defs>

  <!-- background -->
  <rect width="680" height="120" fill="#0e0814"/>

  <!-- border box -->
  <rect x="8" y="8" width="664" height="104" rx="8" fill="none" stroke="#ff79c6" stroke-width="2" opacity="0.4"/>
  <rect x="10" y="10" width="660" height="100" rx="6" fill="none" stroke="#ff40a0" stroke-width="1" opacity="0.2"/>

  <!-- corner dots -->
  <rect x="14" y="14" width="4" height="4" fill="#ff79c6" opacity="0.6"/>
  <rect x="662" y="14" width="4" height="4" fill="#ff79c6" opacity="0.6"/>
  <rect x="14" y="102" width="4" height="4" fill="#ff79c6" opacity="0.6"/>
  <rect x="662" y="102" width="4" height="4" fill="#ff79c6" opacity="0.6"/>

  <!-- glow backdrop -->
  <rect x="60" y="18" width="560" height="84" rx="6" fill="#ff30a0" opacity="0.07" filter="url(#outer_glow)"/>

  <!-- R  startX=68 -->
  <g fill="#ff79c6" filter="url(#led_glow)">
    <rect x="68" y="24" width="9" height="9"/><rect x="79" y="24" width="9" height="9"/><rect x="90" y="24" width="9" height="9"/><rect x="101" y="24" width="9" height="9"/><rect x="112" y="24" width="9" height="9"/>
    <rect x="68" y="35" width="9" height="9"/><rect x="112" y="35" width="9" height="9"/>
    <rect x="68" y="46" width="9" height="9"/><rect x="79" y="46" width="9" height="9"/><rect x="90" y="46" width="9" height="9"/><rect x="101" y="46" width="9" height="9"/>
    <rect x="68" y="57" width="9" height="9"/><rect x="90" y="57" width="9" height="9"/>
    <rect x="68" y="68" width="9" height="9"/><rect x="101" y="68" width="9" height="9"/>
    <rect x="68" y="79" width="9" height="9"/><rect x="112" y="79" width="9" height="9"/>
  </g>

  <!-- E  startX=134 -->
  <g fill="#ff79c6" filter="url(#led_glow)">
    <rect x="134" y="24" width="9" height="9"/><rect x="145" y="24" width="9" height="9"/><rect x="156" y="24" width="9" height="9"/><rect x="167" y="24" width="9" height="9"/><rect x="178" y="24" width="9" height="9"/>
    <rect x="134" y="35" width="9" height="9"/>
    <rect x="134" y="46" width="9" height="9"/><rect x="145" y="46" width="9" height="9"/><rect x="156" y="46" width="9" height="9"/><rect x="167" y="46" width="9" height="9"/>
    <rect x="134" y="57" width="9" height="9"/>
    <rect x="134" y="68" width="9" height="9"/>
    <rect x="134" y="79" width="9" height="9"/><rect x="145" y="79" width="9" height="9"/><rect x="156" y="79" width="9" height="9"/><rect x="167" y="79" width="9" height="9"/><rect x="178" y="79" width="9" height="9"/>
  </g>

  <!-- N  startX=200 -->
  <g fill="#ff79c6" filter="url(#led_glow)">
    <rect x="200" y="24" width="9" height="9"/><rect x="244" y="24" width="9" height="9"/>
    <rect x="200" y="35" width="9" height="9"/><rect x="211" y="35" width="9" height="9"/><rect x="244" y="35" width="9" height="9"/>
    <rect x="200" y="46" width="9" height="9"/><rect x="222" y="46" width="9" height="9"/><rect x="244" y="46" width="9" height="9"/>
    <rect x="200" y="57" width="9" height="9"/><rect x="233" y="57" width="9" height="9"/><rect x="244" y="57" width="9" height="9"/>
    <rect x="200" y="68" width="9" height="9"/><rect x="244" y="68" width="9" height="9"/>
    <rect x="200" y="79" width="9" height="9"/><rect x="244" y="79" width="9" height="9"/>
  </g>

  <!-- U  startX=266 -->
  <g fill="#ff79c6" filter="url(#led_glow)">
    <rect x="266" y="24" width="9" height="9"/><rect x="310" y="24" width="9" height="9"/>
    <rect x="266" y="35" width="9" height="9"/><rect x="310" y="35" width="9" height="9"/>
    <rect x="266" y="46" width="9" height="9"/><rect x="310" y="46" width="9" height="9"/>
    <rect x="266" y="57" width="9" height="9"/><rect x="310" y="57" width="9" height="9"/>
    <rect x="266" y="68" width="9" height="9"/><rect x="310" y="68" width="9" height="9"/>
    <rect x="266" y="79" width="9" height="9"/><rect x="277" y="79" width="9" height="9"/><rect x="288" y="79" width="9" height="9"/><rect x="299" y="79" width="9" height="9"/><rect x="310" y="79" width="9" height="9"/>
  </g>

  <!-- K  startX=332 -->
  <g fill="#ff79c6" filter="url(#led_glow)">
    <rect x="332" y="24" width="9" height="9"/><rect x="365" y="24" width="9" height="9"/>
    <rect x="332" y="35" width="9" height="9"/><rect x="354" y="35" width="9" height="9"/>
    <rect x="332" y="46" width="9" height="9"/><rect x="343" y="46" width="9" height="9"/>
    <rect x="332" y="57" width="9" height="9"/><rect x="343" y="57" width="9" height="9"/>
    <rect x="332" y="68" width="9" height="9"/><rect x="354" y="68" width="9" height="9"/>
    <rect x="332" y="79" width="9" height="9"/><rect x="365" y="79" width="9" height="9"/>
  </g>

  <!-- A  startX=387 -->
  <g fill="#ff79c6" filter="url(#led_glow)">
    <rect x="398" y="24" width="9" height="9"/><rect x="409" y="24" width="9" height="9"/>
    <rect x="387" y="35" width="9" height="9"/><rect x="420" y="35" width="9" height="9"/>
    <rect x="387" y="46" width="9" height="9"/><rect x="398" y="46" width="9" height="9"/><rect x="409" y="46" width="9" height="9"/><rect x="420" y="46" width="9" height="9"/>
    <rect x="387" y="57" width="9" height="9"/><rect x="420" y="57" width="9" height="9"/>
    <rect x="387" y="68" width="9" height="9"/><rect x="420" y="68" width="9" height="9"/>
    <rect x="387" y="79" width="9" height="9"/><rect x="420" y="79" width="9" height="9"/>
  </g>

  <!-- dim unlit dots grid suggestion (very subtle) -->
  <rect x="68" y="24" width="363" height="64" fill="none"/>

</svg>
