<svg xmlns="http://www.w3.org/2000/svg" width="700" height="148" viewBox="0 0 700 148">
  <title>RENUKA LED Display</title>
  <rect width="700" height="148" rx="10" fill="#0d1117"/>
  <rect x="8" y="8" width="6" height="6" rx="1" fill="#1a2a1a"/>
  <rect x="686" y="8" width="6" height="6" rx="1" fill="#1a2a1a"/>
  <rect x="8" y="134" width="6" height="6" rx="1" fill="#1a2a1a"/>
  <rect x="686" y="134" width="6" height="6" rx="1" fill="#1a2a1a"/>
  <rect x="24" y="20" width="9" height="9" rx="2" fill="#161b22" opacity="0.6"/><rect x="35" y="20" width="9" height="9" rx="2" fill="#161b22" opacity="0.6"/><rect x="46" y="20" width="9" height="9" rx="2" fill="#0e2a1a" opacity="0.85"/><rect x="57" y="20" width="9" height="9" rx="2" fill="#161b22" opacity="0.6"/><rect x="68" y="20" width="9" height="9" rx="2" fill="#161b22" opacity="0.6"/><rect x="79" y="20" width="9" height="9" rx="2" fill="#161b22" opacity="0.6"/><rect x="90" y="20" width="9" height="9" rx="2" fill="#161b22" opacity="0.6"/><rect x="101" y="20" width="9" height="9" rx="2" fill="#161b22" opacity="0.6"/><rect x="112" y="20" width="9" height="9" rx="2" fill="#166534" opacity="0.85"/><rect x="123" y="20" width="9" height="9" rx="2" fill="#15803d" opacity="0.85"/><rect x="134" y="20" width="9" height="9" rx="2" fill="#166534" opacity="0.85"/><rect x="145" y="20" width="9" height="9" rx="2" fill="#161b22" opacity="0.6"/><rect x="156" y="20" width="9" height="9" rx="2" fill="#0e2a1a" opacity="0.85"/><rect x="167" y="20" width="9" height="9" rx="2" fill="#166534" opacity="0.85"/><rect x="178" y="20" width="9" height="9" rx="2" fill="#0e2a1a" opacity="0.85"/><rect x="189" y="20" width="9" height="9" rx="2" fill="#161b22" opacity="0.6"/><rect x="200" y="20" width="9" height="9" rx="2" fill="#161b22" opacity="0.6"/><rect x="211" y="20" width="9" height="9" rx="2" fill="#15803d" opacity="0.85"/><rect x="222" y="20" width="9" height="9" rx="2" fill="#166534" opacity="0.85"/><rect x="233" y="20" width="9" height="9" rx="2" fill="#166534" opacity="0.85"/><rect x="244" y="20" width="9" height="9" rx="2" fill="#0e2a1a" opacity="0.85"/><rect x="255" y="20" width="9" height="9" rx="2" fill="#161b22" opacity="0.6"/><rect x="266" y="20" width="9" height="9" rx="2" fill="#0e2a1a" opacity="0.85"/><rect x="277" y="20" width="9" height="9" rx="2" fill="#161b22" opacity="0.6"/><rect x="288" y="20" width="9" height="9" rx="2" fill="#15803d" opacity="0.85"/><rect x="299" y="20" width="9" height="9" rx="2" fill="#14532d" opacity="0.85"/><rect x="310" y="20" width="9" height="9" rx="2" fill="#161b22" opacity="0.6"/><rect x="321" y="20" width="9" height="9" rx="2" fill="#14532d" opacity="0.85"/><rect x="332" y="20" width="9" height="9" rx="2" fill="#161b22" opacity="0.6"/><rect x="343" y="20" width="9" height="9" rx="2" fill="#161b22" opacity="0.6"/><rect x="354" y="20" width="9" height="9" rx="2" fill="#161b22" opacity="0.6"/><rect x="365" y="20" width="9" height="9" rx="2" fill="#161b22" opacity="0.6"/><rect x="376" y="20" width="9" height="9" rx="2" fill="#14532d" opacity="0.85"/><rect x="387" y="20" width="9" height="9" rx="2" fill="#14532d" opacity="0.85"/><rect x="398" y="20" width="9" height="9" rx="2" fill="#0e2a1a" opacity="0.85"/><rect x="409" y="20" width="9" height="9" rx="2" fill="#161b22" opacity="0.6"/><rect x="420" y="20" width="9" height="9" rx="2" fill="#0e2a1a" opacity="0.85"/><rect x="431" y="20" width="9" height="9" rx="2" fill="#0e2a1a" opacity="0.85"/><rect x="442" y="20" width="9" height="9" rx="2" fill="#0e2a1a" opacity="0.85"/><rect x="453" y="20" width="9" height="9" rx="2" fill="#0e2a1a" opacity="0.85"/><rect x="464" y="20" width="9" height="9" rx="2" fill="#15803d" opacity="0.85"/><rect x="475" y="20" width="9" height="9" rx="2" fill="#161b22" opacity="0.6"/><rect x="486" y="20" width="9" height="9" rx="2" fill="#161b22" opacity="0.6"/><rect x="497" y="20" width="9" height="9" rx="2" fill="#161b22" opacity="0.6"/><rect x="508" y="20" width="9" height="9" rx="2" fill="#161b22" opacity="0.6"/><rect x="519" y="20" width="9" height="9" rx="2" fill="#161b22" opacity="0.6"/><rect x="530" y="20" width="9" height="9" rx="2" fill="#14532d" opacity="0.85"/><rect x="541" y="20" width="9" height="9" rx="2" fill="#0e2a1a" opacity="0.85"/><rect x="552" y="20" width="9" height="9" rx="2" fill="#14532d" opacity="0.85"/><rect x="563" y="20" width="9" height="9" rx="2" fill="#161b22" opacity="0.6"/><rect x="574" y="20" width="9" height="9" rx="2" fill="#161b22" opacity="0.6"/><rect x="585" y="20" width="9" height="9" rx="2" fill="#161b22" opacity="0.6"/><rect x="596" y="20" width="9" height="9" rx="2" fill="#161b22" opacity="0.6"/><rect x="607" y="20" width="9" height="9" rx="2" fill="#161b22" opacity="0.6"/><rect x="618" y="20" width="9" height="9" rx="2" fill="#161b22" opacity="0.6"/><rect x="629" y="20" width="9" height="9" rx="2" fill="#166534" opacity="0.85"/><rect x="640" y="20" width="9" height="9" rx="2" fill="#15803d" opacity="0.85"/><rect x="651" y="20" width="9" height="9" rx="2" fill="#161b22" opacity="0.6"/><rect x="662" y="20" width="9" height="9" rx="2" fill="#166534" opacity="0.85"/><rect x="24" y="31" width="9" height="9" rx="2" fill="#0e2a1a" opacity="0.85"/><rect x="35" y="31" width="9" height="9" rx="2" fill="#161b22" opacity="0.6"/><rect x="46" y="31" width="9" height="9" rx="2" fill="#161b22" opacity="0.6"/><rect x="57" y="31" width="9" height="9" rx="2" fill="#161b22" opacity="0.6"/><rect x="68" y="31" width="9" height="9" rx="2" fill="#15803d" opacity="0.85"/><rect x="79" y="31" width="9" height="9" rx="2" fill="#161b22" opacity="0.6"/><rect x="90" y="31" width="9" height="9" rx="2" fill="#166534" opacity="0.85"/><rect x="101" y="31" width="9" height="9" rx="2" fill="#14532d" opacity="0.85"/><rect x="112" y="31" width="9" height="9" rx="2" fill="#161b22" opacity="0.6"/><rect x="123" y="31" width="9" height="9" rx="2" fill="#0e2a1a" opacity="0.85"/><rect x="134" y="31" width="9" height="9" rx="2" fill="#161b22" opacity="0.6"/><rect x="145" y="31" width="9" height="9" rx="2" fill="#161b22" opacity="0.6"/><rect x="156" y="31" width="9" height="9" rx="2" fill="#161b22" opacity="0.6"/><rect x="530" y="31" width="9" height="9" rx="2" fill="#161b22" opacity="0.6"/><rect x="541" y="31" width="9" height="9" rx="2" fill="#161b22" opacity="0.6"/><rect x="552" y="31" width="9" height="9" rx="2" fill="#161b22" opacity="0.6"/><rect x="563" y="31" width="9" height="9" rx="2" fill="#161b22" opacity="0.6"/><rect x="574" y="31" width="9" height="9" rx="2" fill="#161b22" opacity="0.6"/><rect x="585" y="31" width="9" height="9" rx="2" fill="#0e2a1a" opacity="0.85"/><rect x="596" y="31" width="9" height="9" rx="2" fill="#161b22" opacity="0.6"/><rect x="607" y="31" width="9" height="9" rx="2" fill="#161b22" opacity="0.6"/><rect x="618" y="31" width="9" height="9" rx="2" fill="#161b22" opacity="0.6"/><rect x="629" y="31" width="9" height="9" rx="2" fill="#0e2a1a" opacity="0.85"/><rect x="640" y="31" width="9" height="9" rx="2" fill="#0e2a1a" opacity="0.85"/><rect x="651" y="31" width="9" height="9" rx="2" fill="#0e2a1a" opacity="0.85"/><rect x="662" y="31" width="9" height="9" rx="2" fill="#0e2a1a" opacity="0.85"/><rect x="24" y="42" width="9" height="9" rx="2" fill="#161b22" opacity="0.6"/><rect x="35" y="42" width="9" height="9" rx="2" fill="#161b22" opacity="0.6"/><rect x="46" y="42" width="9" height="9" rx="2" fill="#161b22" opacity="0.6"/><rect x="57" y="42" width="9" height="9" rx="2" fill="#166534" opacity="0.85"/><rect x="68" y="42" width="9" height="9" rx="2" fill="#161b22" opacity="0.6"/><rect x="79" y="42" width="9" height="9" rx="2" fill="#166534" opacity="0.85"/><rect x="90" y="42" width="9" height="9" rx="2" fill="#15803d" opacity="0.85"/><rect x="101" y="42" width="9" height="9" rx="2" fill="#0e2a1a" opacity="0.85"/><rect x="112" y="42" width="9" height="9" rx="2" fill="#166534" opacity="0.85"/><rect x="123" y="42" width="9" height="9" rx="2" fill="#161b22" opacity="0.6"/><rect x="134" y="42" width="9" height="9" rx="2" fill="#161b22" opacity="0.6"/><rect x="145" y="42" width="9" height="9" rx="2" fill="#161b22" opacity="0.6"/><rect x="156" y="42" width="9" height="9" rx="2" fill="#161b22" opacity="0.6"/><rect x="530" y="42" width="9" height="9" rx="2" fill="#0e2a1a" opacity="0.85"/><rect x="541" y="42" width="9" height="9" rx="2" fill="#161b22" opacity="0.6"/><rect x="552" y="42" width="9" height="9" rx="2" fill="#14532d" opacity="0.85"/><rect x="563" y="42" width="9" height="9" rx="2" fill="#161b22" opacity="0.6"/><rect x="574" y="42" width="9" height="9" rx="2" fill="#15803d" opacity="0.85"/><rect x="585" y="42" width="9" height="9" rx="2" fill="#161b22" opacity="0.6"/><rect x="596" y="42" width="9" height="9" rx="2" fill="#161b22" opacity="0.6"/><rect x="607" y="42" width="9" height="9" rx="2" fill="#0e2a1a" opacity="0.85"/><rect x="618" y="42" width="9" height="9" rx="2" fill="#0e2a1a" opacity="0.85"/><rect x="629" y="42" width="9" height="9" rx="2" fill="#161b22" opacity="0.6"/><rect x="640" y="42" width="9" height="9" rx="2" fill="#161b22" opacity="0.6"/><rect x="651" y="42" width="9" height="9" rx="2" fill="#0e2a1a" opacity="0.85"/><rect x="662" y="42" width="9" height="9" rx="2" fill="#161b22" opacity="0.6"/><rect x="24" y="53" width="9" height="9" rx="2" fill="#161b22" opacity="0.6"/><rect x="35" y="53" width="9" height="9" rx="2" fill="#161b22" opacity="0.6"/><rect x="46" y="53" width="9" height="9" rx="2" fill="#161b22" opacity="0.6"/><rect x="57" y="53" width="9" height="9" rx="2" fill="#161b22" opacity="0.6"/><rect x="68" y="53" width="9" height="9" rx="2" fill="#0e2a1a" opacity="0.85"/><rect x="79" y="53" width="9" height="9" rx="2" fill="#161b22" opacity="0.6"/><rect x="90" y="53" width="9" height="9" rx="2" fill="#15803d" opacity="0.85"/><rect x="101" y="53" width="9" height="9" rx="2" fill="#0e2a1a" opacity="0.85"/><rect x="112" y="53" width="9" height="9" rx="2" fill="#0e2a1a" opacity="0.85"/><rect x="123" y="53" width="9" height="9" rx="2" fill="#161b22" opacity="0.6"/><rect x="134" y="53" width="9" height="9" rx="2" fill="#0e2a1a" opacity="0.85"/><rect x="145" y="53" width="9" height="9" rx="2" fill="#161b22" opacity="0.6"/><rect x="156" y="53" width="9" height="9" rx="2" fill="#166534" opacity="0.85"/><rect x="530" y="53" width="9" height="9" rx="2" fill="#161b22" opacity="0.6"/><rect x="541" y="53" width="9" height="9" rx="2" fill="#14532d" opacity="0.85"/><rect x="552" y="53" width="9" height="9" rx="2" fill="#161b22" opacity="0.6"/><rect x="563" y="53" width="9" height="9" rx="2" fill="#161b22" opacity="0.6"/><rect x="574" y="53" width="9" height="9" rx="2" fill="#15803d" opacity="0.85"/><rect x="585" y="53" width="9" height="9" rx="2" fill="#0e2a1a" opacity="0.85"/><rect x="596" y="53" width="9" height="9" rx="2" fill="#0e2a1a" opacity="0.85"/><rect x="607" y="53" width="9" height="9" rx="2" fill="#161b22" opacity="0.6"/><rect x="618" y="53" width="9" height="9" rx="2" fill="#161b22" opacity="0.6"/><rect x="629" y="53" width="9" height="9" rx="2" fill="#0e2a1a" opacity="0.85"/><rect x="640" y="53" width="9" height="9" rx="2" fill="#166534" opacity="0.85"/><rect x="651" y="53" width="9" height="9" rx="2" fill="#161b22" opacity="0.6"/><rect x="662" y="53" width="9" height="9" rx="2" fill="#161b22" opacity="0.6"/><rect x="24" y="64" width="9" height="9" rx="2" fill="#14532d" opacity="0.85"/><rect x="35" y="64" width="9" height="9" rx="2" fill="#15803d" opacity="0.85"/><rect x="46" y="64" width="9" height="9" rx="2" fill="#14532d" opacity="0.85"/><rect x="57" y="64" width="9" height="9" rx="2" fill="#161b22" opacity="0.6"/><rect x="68" y="64" width="9" height="9" rx="2" fill="#161b22" opacity="0.6"/><rect x="79" y="64" width="9" height="9" rx="2" fill="#14532d" opacity="0.85"/><rect x="90" y="64" width="9" height="9" rx="2" fill="#166534" opacity="0.85"/><rect x="101" y="64" width="9" height="9" rx="2" fill="#166534" opacity="0.85"/><rect x="112" y="64" width="9" height="9" rx="2" fill="#166534" opacity="0.85"/><rect x="123" y="64" width="9" height="9" rx="2" fill="#161b22" opacity="0.6"/><rect x="134" y="64" width="9" height="9" rx="2" fill="#0e2a1a" opacity="0.85"/><rect x="145" y="64" width="9" height="9" rx="2" fill="#166534" opacity="0.85"/><rect x="156" y="64" width="9" height="9" rx="2" fill="#0e2a1a" opacity="0.85"/><rect x="530" y="64" width="9" height="9" rx="2" fill="#14532d" opacity="0.85"/><rect x="541" y="64" width="9" height="9" rx="2" fill="#161b22" opacity="0.6"/><rect x="552" y="64" width="9" height="9" rx="2" fill="#166534" opacity="0.85"/><rect x="563" y="64" width="9" height="9" rx="2" fill="#161b22" opacity="0.6"/><rect x="574" y="64" width="9" height="9" rx="2" fill="#161b22" opacity="0.6"/><rect x="585" y="64" width="9" height="9" rx="2" fill="#161b22" opacity="0.6"/><rect x="596" y="64" width="9" height="9" rx="2" fill="#166534" opacity="0.85"/><rect x="607" y="64" width="9" height="9" rx="2" fill="#14532d" opacity="0.85"/><rect x="618" y="64" width="9" height="9" rx="2" fill="#161b22" opacity="0.6"/><rect x="629" y="64" width="9" height="9" rx="2" fill="#161b22" opacity="0.6"/><rect x="640" y="64" width="9" height="9" rx="2" fill="#14532d" opacity="0.85"/><rect x="651" y="64" width="9" height="9" rx="2" fill="#161b22" opacity="0.6"/><rect x="662" y="64" width="9" height="9" rx="2" fill="#166534" opacity="0.85"/><rect x="24" y="75" width="9" height="9" rx="2" fill="#161b22" opacity="0.6"/><rect x="35" y="75" width="9" height="9" rx="2" fill="#0e2a1a" opacity="0.85"/><rect x="46" y="75" width="9" height="9" rx="2" fill="#161b22" opacity="0.6"/><rect x="57" y="75" width="9" height="9" rx="2" fill="#14532d" opacity="0.85"/><rect x="68" y="75" width="9" height="9" rx="2" fill="#161b22" opacity="0.6"/><rect x="79" y="75" width="9" height="9" rx="2" fill="#161b22" opacity="0.6"/><rect x="90" y="75" width="9" height="9" rx="2" fill="#166534" opacity="0.85"/><rect x="101" y="75" width="9" height="9" rx="2" fill="#0e2a1a" opacity="0.85"/><rect x="112" y="75" width="9" height="9" rx="2" fill="#161b22" opacity="0.6"/><rect x="123" y="75" width="9" height="9" rx="2" fill="#14532d" opacity="0.85"/><rect x="134" y="75" width="9" height="9" rx="2" fill="#161b22" opacity="0.6"/><rect x="145" y="75" width="9" height="9" rx="2" fill="#161b22" opacity="0.6"/><rect x="156" y="75" width="9" height="9" rx="2" fill="#14532d" opacity="0.85"/><rect x="530" y="75" width="9" height="9" rx="2" fill="#14532d" opacity="0.85"/><rect x="541" y="75" width="9" height="9" rx="2" fill="#161b22" opacity="0.6"/><rect x="552" y="75" width="9" height="9" rx="2" fill="#161b22" opacity="0.6"/><rect x="563" y="75" width="9" height="9" rx="2" fill="#161b22" opacity="0.6"/><rect x="574" y="75" width="9" height="9" rx="2" fill="#161b22" opacity="0.6"/><rect x="585" y="75" width="9" height="9" rx="2" fill="#161b22" opacity="0.6"/><rect x="596" y="75" width="9" height="9" rx="2" fill="#161b22" opacity="0.6"/><rect x="607" y="75" width="9" height="9" rx="2" fill="#161b22" opacity="0.6"/><rect x="618" y="75" width="9" height="9" rx="2" fill="#161b22" opacity="0.6"/><rect x="629" y="75" width="9" height="9" rx="2" fill="#14532d" opacity="0.85"/><rect x="640" y="75" width="9" height="9" rx="2" fill="#161b22" opacity="0.6"/><rect x="651" y="75" width="9" height="9" rx="2" fill="#161b22" opacity="0.6"/><rect x="662" y="75" width="9" height="9" rx="2" fill="#161b22" opacity="0.6"/><rect x="24" y="86" width="9" height="9" rx="2" fill="#14532d" opacity="0.85"/><rect x="35" y="86" width="9" height="9" rx="2" fill="#161b22" opacity="0.6"/><rect x="46" y="86" width="9" height="9" rx="2" fill="#161b22" opacity="0.6"/><rect x="57" y="86" width="9" height="9" rx="2" fill="#166534" opacity="0.85"/><rect x="68" y="86" width="9" height="9" rx="2" fill="#161b22" opacity="0.6"/><rect x="79" y="86" width="9" height="9" rx="2" fill="#0e2a1a" opacity="0.85"/><rect x="90" y="86" width="9" height="9" rx="2" fill="#161b22" opacity="0.6"/><rect x="101" y="86" width="9" height="9" rx="2" fill="#161b22" opacity="0.6"/><rect x="112" y="86" width="9" height="9" rx="2" fill="#161b22" opacity="0.6"/><rect x="123" y="86" width="9" height="9" rx="2" fill="#161b22" opacity="0.6"/><rect x="134" y="86" width="9" height="9" rx="2" fill="#161b22" opacity="0.6"/><rect x="145" y="86" width="9" height="9" rx="2" fill="#15803d" opacity="0.85"/><rect x="156" y="86" width="9" height="9" rx="2" fill="#161b22" opacity="0.6"/><rect x="530" y="86" width="9" height="9" rx="2" fill="#14532d" opacity="0.85"/><rect x="541" y="86" width="9" height="9" rx="2" fill="#161b22" opacity="0.6"/><rect x="552" y="86" width="9" height="9" rx="2" fill="#0e2a1a" opacity="0.85"/><rect x="563" y="86" width="9" height="9" rx="2" fill="#0e2a1a" opacity="0.85"/><rect x="574" y="86" width="9" height="9" rx="2" fill="#161b22" opacity="0.6"/><rect x="585" y="86" width="9" height="9" rx="2" fill="#161b22" opacity="0.6"/><rect x="596" y="86" width="9" height="9" rx="2" fill="#0e2a1a" opacity="0.85"/><rect x="607" y="86" width="9" height="9" rx="2" fill="#14532d" opacity="0.85"/><rect x="618" y="86" width="9" height="9" rx="2" fill="#166534" opacity="0.85"/><rect x="629" y="86" width="9" height="9" rx="2" fill="#161b22" opacity="0.6"/><rect x="640" y="86" width="9" height="9" rx="2" fill="#161b22" opacity="0.6"/><rect x="651" y="86" width="9" height="9" rx="2" fill="#15803d" opacity="0.85"/><rect x="662" y="86" width="9" height="9" rx="2" fill="#161b22" opacity="0.6"/><rect x="24" y="97" width="9" height="9" rx="2" fill="#14532d" opacity="0.85"/><rect x="35" y="97" width="9" height="9" rx="2" fill="#161b22" opacity="0.6"/><rect x="46" y="97" width="9" height="9" rx="2" fill="#166534" opacity="0.85"/><rect x="57" y="97" width="9" height="9" rx="2" fill="#161b22" opacity="0.6"/><rect x="68" y="97" width="9" height="9" rx="2" fill="#161b22" opacity="0.6"/><rect x="79" y="97" width="9" height="9" rx="2" fill="#161b22" opacity="0.6"/><rect x="90" y="97" width="9" height="9" rx="2" fill="#166534" opacity="0.85"/><rect x="101" y="97" width="9" height="9" rx="2" fill="#14532d" opacity="0.85"/><rect x="112" y="97" width="9" height="9" rx="2" fill="#161b22" opacity="0.6"/><rect x="123" y="97" width="9" height="9" rx="2" fill="#0e2a1a" opacity="0.85"/><rect x="134" y="97" width="9" height="9" rx="2" fill="#161b22" opacity="0.6"/><rect x="145" y="97" width="9" height="9" rx="2" fill="#161b22" opacity="0.6"/><rect x="156" y="97" width="9" height="9" rx="2" fill="#161b22" opacity="0.6"/><rect x="530" y="97" width="9" height="9" rx="2" fill="#161b22" opacity="0.6"/><rect x="541" y="97" width="9" height="9" rx="2" fill="#166534" opacity="0.85"/><rect x="552" y="97" width="9" height="9" rx="2" fill="#161b22" opacity="0.6"/><rect x="563" y="97" width="9" height="9" rx="2" fill="#15803d" opacity="0.85"/><rect x="574" y="97" width="9" height="9" rx="2" fill="#0e2a1a" opacity="0.85"/><rect x="585" y="97" width="9" height="9" rx="2" fill="#166534" opacity="0.85"/><rect x="596" y="97" width="9" height="9" rx="2" fill="#14532d" opacity="0.85"/><rect x="607" y="97" width="9" height="9" rx="2" fill="#161b22" opacity="0.6"/><rect x="618" y="97" width="9" height="9" rx="2" fill="#0e2a1a" opacity="0.85"/><rect x="629" y="97" width="9" height="9" rx="2" fill="#161b22" opacity="0.6"/><rect x="640" y="97" width="9" height="9" rx="2" fill="#0e2a1a" opacity="0.85"/><rect x="651" y="97" width="9" height="9" rx="2" fill="#0e2a1a" opacity="0.85"/><rect x="662" y="97" width="9" height="9" rx="2" fill="#0e2a1a" opacity="0.85"/><rect x="24" y="108" width="9" height="9" rx="2" fill="#161b22" opacity="0.6"/><rect x="35" y="108" width="9" height="9" rx="2" fill="#161b22" opacity="0.6"/><rect x="46" y="108" width="9" height="9" rx="2" fill="#0e2a1a" opacity="0.85"/><rect x="57" y="108" width="9" height="9" rx="2" fill="#0e2a1a" opacity="0.85"/><rect x="68" y="108" width="9" height="9" rx="2" fill="#166534" opacity="0.85"/><rect x="79" y="108" width="9" height="9" rx="2" fill="#166534" opacity="0.85"/><rect x="90" y="108" width="9" height="9" rx="2" fill="#161b22" opacity="0.6"/><rect x="101" y="108" width="9" height="9" rx="2" fill="#161b22" opacity="0.6"/><rect x="112" y="108" width="9" height="9" rx="2" fill="#161b22" opacity="0.6"/><rect x="123" y="108" width="9" height="9" rx="2" fill="#166534" opacity="0.85"/><rect x="134" y="108" width="9" height="9" rx="2" fill="#166534" opacity="0.85"/><rect x="145" y="108" width="9" height="9" rx="2" fill="#0e2a1a" opacity="0.85"/><rect x="156" y="108" width="9" height="9" rx="2" fill="#0e2a1a" opacity="0.85"/><rect x="530" y="108" width="9" height="9" rx="2" fill="#0e2a1a" opacity="0.85"/><rect x="541" y="108" width="9" height="9" rx="2" fill="#161b22" opacity="0.6"/><rect x="552" y="108" width="9" height="9" rx="2" fill="#14532d" opacity="0.85"/><rect x="563" y="108" width="9" height="9" rx="2" fill="#161b22" opacity="0.6"/><rect x="574" y="108" width="9" height="9" rx="2" fill="#161b22" opacity="0.6"/><rect x="585" y="108" width="9" height="9" rx="2" fill="#0e2a1a" opacity="0.85"/><rect x="596" y="108" width="9" height="9" rx="2" fill="#166534" opacity="0.85"/><rect x="607" y="108" width="9" height="9" rx="2" fill="#161b22" opacity="0.6"/><rect x="618" y="108" width="9" height="9" rx="2" fill="#0e2a1a" opacity="0.85"/><rect x="629" y="108" width="9" height="9" rx="2" fill="#161b22" opacity="0.6"/><rect x="640" y="108" width="9" height="9" rx="2" fill="#14532d" opacity="0.85"/><rect x="651" y="108" width="9" height="9" rx="2" fill="#161b22" opacity="0.6"/><rect x="662" y="108" width="9" height="9" rx="2" fill="#0e2a1a" opacity="0.85"/><rect x="24" y="119" width="9" height="9" rx="2" fill="#166534" opacity="0.85"/><rect x="35" y="119" width="9" height="9" rx="2" fill="#161b22" opacity="0.6"/><rect x="46" y="119" width="9" height="9" rx="2" fill="#14532d" opacity="0.85"/><rect x="57" y="119" width="9" height="9" rx="2" fill="#161b22" opacity="0.6"/><rect x="68" y="119" width="9" height="9" rx="2" fill="#166534" opacity="0.85"/><rect x="79" y="119" width="9" height="9" rx="2" fill="#161b22" opacity="0.6"/><rect x="90" y="119" width="9" height="9" rx="2" fill="#161b22" opacity="0.6"/><rect x="101" y="119" width="9" height="9" rx="2" fill="#14532d" opacity="0.85"/><rect x="112" y="119" width="9" height="9" rx="2" fill="#161b22" opacity="0.6"/><rect x="123" y="119" width="9" height="9" rx="2" fill="#161b22" opacity="0.6"/><rect x="134" y="119" width="9" height="9" rx="2" fill="#161b22" opacity="0.6"/><rect x="145" y="119" width="9" height="9" rx="2" fill="#15803d" opacity="0.85"/><rect x="156" y="119" width="9" height="9" rx="2" fill="#161b22" opacity="0.6"/><rect x="167" y="119" width="9" height="9" rx="2" fill="#161b22" opacity="0.6"/><rect x="178" y="119" width="9" height="9" rx="2" fill="#14532d" opacity="0.85"/><rect x="189" y="119" width="9" height="9" rx="2" fill="#166534" opacity="0.85"/><rect x="200" y="119" width="9" height="9" rx="2" fill="#15803d" opacity="0.85"/><rect x="211" y="119" width="9" height="9" rx="2" fill="#161b22" opacity="0.6"/><rect x="222" y="119" width="9" height="9" rx="2" fill="#166534" opacity="0.85"/><rect x="233" y="119" width="9" height="9" rx="2" fill="#161b22" opacity="0.6"/><rect x="244" y="119" width="9" height="9" rx="2" fill="#0e2a1a" opacity="0.85"/><rect x="255" y="119" width="9" height="9" rx="2" fill="#166534" opacity="0.85"/><rect x="266" y="119" width="9" height="9" rx="2" fill="#15803d" opacity="0.85"/><rect x="277" y="119" width="9" height="9" rx="2" fill="#161b22" opacity="0.6"/><rect x="288" y="119" width="9" height="9" rx="2" fill="#161b22" opacity="0.6"/><rect x="299" y="119" width="9" height="9" rx="2" fill="#161b22" opacity="0.6"/><rect x="310" y="119" width="9" height="9" rx="2" fill="#161b22" opacity="0.6"/><rect x="321" y="119" width="9" height="9" rx="2" fill="#161b22" opacity="0.6"/><rect x="332" y="119" width="9" height="9" rx="2" fill="#14532d" opacity="0.85"/><rect x="343" y="119" width="9" height="9" rx="2" fill="#161b22" opacity="0.6"/><rect x="354" y="119" width="9" height="9" rx="2" fill="#14532d" opacity="0.85"/><rect x="365" y="119" width="9" height="9" rx="2" fill="#14532d" opacity="0.85"/><rect x="376" y="119" width="9" height="9" rx="2" fill="#161b22" opacity="0.6"/><rect x="387" y="119" width="9" height="9" rx="2" fill="#0e2a1a" opacity="0.85"/><rect x="398" y="119" width="9" height="9" rx="2" fill="#14532d" opacity="0.85"/><rect x="409" y="119" width="9" height="9" rx="2" fill="#161b22" opacity="0.6"/><rect x="420" y="119" width="9" height="9" rx="2" fill="#14532d" opacity="0.85"/><rect x="431" y="119" width="9" height="9" rx="2" fill="#161b22" opacity="0.6"/><rect x="442" y="119" width="9" height="9" rx="2" fill="#161b22" opacity="0.6"/><rect x="453" y="119" width="9" height="9" rx="2" fill="#161b22" opacity="0.6"/><rect x="464" y="119" width="9" height="9" rx="2" fill="#161b22" opacity="0.6"/><rect x="475" y="119" width="9" height="9" rx="2" fill="#166534" opacity="0.85"/><rect x="486" y="119" width="9" height="9" rx="2" fill="#14532d" opacity="0.85"/><rect x="497" y="119" width="9" height="9" rx="2" fill="#161b22" opacity="0.6"/><rect x="508" y="119" width="9" height="9" rx="2" fill="#166534" opacity="0.85"/><rect x="519" y="119" width="9" height="9" rx="2" fill="#14532d" opacity="0.85"/><rect x="530" y="119" width="9" height="9" rx="2" fill="#14532d" opacity="0.85"/><rect x="541" y="119" width="9" height="9" rx="2" fill="#161b22" opacity="0.6"/><rect x="552" y="119" width="9" height="9" rx="2" fill="#161b22" opacity="0.6"/><rect x="563" y="119" width="9" height="9" rx="2" fill="#161b22" opacity="0.6"/><rect x="574" y="119" width="9" height="9" rx="2" fill="#14532d" opacity="0.85"/><rect x="585" y="119" width="9" height="9" rx="2" fill="#161b22" opacity="0.6"/><rect x="596" y="119" width="9" height="9" rx="2" fill="#161b22" opacity="0.6"/><rect x="607" y="119" width="9" height="9" rx="2" fill="#15803d" opacity="0.85"/><rect x="618" y="119" width="9" height="9" rx="2" fill="#161b22" opacity="0.6"/><rect x="629" y="119" width="9" height="9" rx="2" fill="#161b22" opacity="0.6"/><rect x="640" y="119" width="9" height="9" rx="2" fill="#0e2a1a" opacity="0.85"/><rect x="651" y="119" width="9" height="9" rx="2" fill="#161b22" opacity="0.6"/><rect x="662" y="119" width="9" height="9" rx="2" fill="#161b22" opacity="0.6"/><rect x="172" y="36" width="9" height="9" rx="2" fill="#f76e8a"/><rect x="183" y="36" width="9" height="9" rx="2" fill="#f76e8a"/><rect x="194" y="36" width="9" height="9" rx="2" fill="#f76e8a"/><rect x="205" y="36" width="9" height="9" rx="2" fill="#f76e8a"/><rect x="172" y="47" width="9" height="9" rx="2" fill="#f76e8a"/><rect x="216" y="47" width="9" height="9" rx="2" fill="#f76e8a"/><rect x="172" y="58" width="9" height="9" rx="2" fill="#f76e8a"/><rect x="183" y="58" width="9" height="9" rx="2" fill="#f76e8a"/><rect x="194" y="58" width="9" height="9" rx="2" fill="#f76e8a"/><rect x="205" y="58" width="9" height="9" rx="2" fill="#f76e8a"/><rect x="172" y="69" width="9" height="9" rx="2" fill="#f76e8a"/><rect x="194" y="69" width="9" height="9" rx="2" fill="#f76e8a"/><rect x="172" y="80" width="9" height="9" rx="2" fill="#f76e8a"/><rect x="205" y="80" width="9" height="9" rx="2" fill="#f76e8a"/><rect x="172" y="91" width="9" height="9" rx="2" fill="#f76e8a"/><rect x="216" y="91" width="9" height="9" rx="2" fill="#f76e8a"/><rect x="172" y="102" width="9" height="9" rx="2" fill="#f76e8a"/><rect x="216" y="102" width="9" height="9" rx="2" fill="#f76e8a"/><rect x="232" y="36" width="9" height="9" rx="2" fill="#f76e8a"/><rect x="243" y="36" width="9" height="9" rx="2" fill="#f76e8a"/><rect x="254" y="36" width="9" height="9" rx="2" fill="#f76e8a"/><rect x="265" y="36" width="9" height="9" rx="2" fill="#f76e8a"/><rect x="276" y="36" width="9" height="9" rx="2" fill="#f76e8a"/><rect x="232" y="47" width="9" height="9" rx="2" fill="#f76e8a"/><rect x="232" y="58" width="9" height="9" rx="2" fill="#f76e8a"/><rect x="232" y="69" width="9" height="9" rx="2" fill="#f76e8a"/><rect x="243" y="69" width="9" height="9" rx="2" fill="#f76e8a"/><rect x="254" y="69" width="9" height="9" rx="2" fill="#f76e8a"/><rect x="265" y="69" width="9" height="9" rx="2" fill="#f76e8a"/><rect x="232" y="80" width="9" height="9" rx="2" fill="#f76e8a"/><rect x="232" y="91" width="9" height="9" rx="2" fill="#f76e8a"/><rect x="232" y="102" width="9" height="9" rx="2" fill="#f76e8a"/><rect x="243" y="102" width="9" height="9" rx="2" fill="#f76e8a"/><rect x="254" y="102" width="9" height="9" rx="2" fill="#f76e8a"/><rect x="265" y="102" width="9" height="9" rx="2" fill="#f76e8a"/><rect x="276" y="102" width="9" height="9" rx="2" fill="#f76e8a"/><rect x="292" y="36" width="9" height="9" rx="2" fill="#f76e8a"/><rect x="336" y="36" width="9" height="9" rx="2" fill="#f76e8a"/><rect x="292" y="47" width="9" height="9" rx="2" fill="#f76e8a"/><rect x="303" y="47" width="9" height="9" rx="2" fill="#f76e8a"/><rect x="336" y="47" width="9" height="9" rx="2" fill="#f76e8a"/><rect x="292" y="58" width="9" height="9" rx="2" fill="#f76e8a"/><rect x="314" y="58" width="9" height="9" rx="2" fill="#f76e8a"/><rect x="336" y="58" width="9" height="9" rx="2" fill="#f76e8a"/><rect x="292" y="69" width="9" height="9" rx="2" fill="#f76e8a"/><rect x="325" y="69" width="9" height="9" rx="2" fill="#f76e8a"/><rect x="336" y="69" width="9" height="9" rx="2" fill="#f76e8a"/><rect x="292" y="80" width="9" height="9" rx="2" fill="#f76e8a"/><rect x="336" y="80" width="9" height="9" rx="2" fill="#f76e8a"/><rect x="292" y="91" width="9" height="9" rx="2" fill="#f76e8a"/><rect x="336" y="91" width="9" height="9" rx="2" fill="#f76e8a"/><rect x="292" y="102" width="9" height="9" rx="2" fill="#f76e8a"/><rect x="336" y="102" width="9" height="9" rx="2" fill="#f76e8a"/><rect x="352" y="36" width="9" height="9" rx="2" fill="#f76e8a"/><rect x="396" y="36" width="9" height="9" rx="2" fill="#f76e8a"/><rect x="352" y="47" width="9" height="9" rx="2" fill="#f76e8a"/><rect x="396" y="47" width="9" height="9" rx="2" fill="#f76e8a"/><rect x="352" y="58" width="9" height="9" rx="2" fill="#f76e8a"/><rect x="396" y="58" width="9" height="9" rx="2" fill="#f76e8a"/><rect x="352" y="69" width="9" height="9" rx="2" fill="#f76e8a"/><rect x="396" y="69" width="9" height="9" rx="2" fill="#f76e8a"/><rect x="352" y="80" width="9" height="9" rx="2" fill="#f76e8a"/><rect x="396" y="80" width="9" height="9" rx="2" fill="#f76e8a"/><rect x="352" y="91" width="9" height="9" rx="2" fill="#f76e8a"/><rect x="396" y="91" width="9" height="9" rx="2" fill="#f76e8a"/><rect x="363" y="102" width="9" height="9" rx="2" fill="#f76e8a"/><rect x="374" y="102" width="9" height="9" rx="2" fill="#f76e8a"/><rect x="385" y="102" width="9" height="9" rx="2" fill="#f76e8a"/><rect x="412" y="36" width="9" height="9" rx="2" fill="#f76e8a"/><rect x="445" y="36" width="9" height="9" rx="2" fill="#f76e8a"/><rect x="412" y="47" width="9" height="9" rx="2" fill="#f76e8a"/><rect x="434" y="47" width="9" height="9" rx="2" fill="#f76e8a"/><rect x="412" y="58" width="9" height="9" rx="2" fill="#f76e8a"/><rect x="423" y="58" width="9" height="9" rx="2" fill="#f76e8a"/><rect x="412" y="69" width="9" height="9" rx="2" fill="#f76e8a"/><rect x="434" y="69" width="9" height="9" rx="2" fill="#f76e8a"/><rect x="412" y="80" width="9" height="9" rx="2" fill="#f76e8a"/><rect x="445" y="80" width="9" height="9" rx="2" fill="#f76e8a"/><rect x="412" y="91" width="9" height="9" rx="2" fill="#f76e8a"/><rect x="445" y="91" width="9" height="9" rx="2" fill="#f76e8a"/><rect x="412" y="102" width="9" height="9" rx="2" fill="#f76e8a"/><rect x="456" y="102" width="9" height="9" rx="2" fill="#f76e8a"/><rect x="483" y="36" width="9" height="9" rx="2" fill="#f76e8a"/><rect x="494" y="36" width="9" height="9" rx="2" fill="#f76e8a"/><rect x="505" y="36" width="9" height="9" rx="2" fill="#f76e8a"/><rect x="472" y="47" width="9" height="9" rx="2" fill="#f76e8a"/><rect x="516" y="47" width="9" height="9" rx="2" fill="#f76e8a"/><rect x="472" y="58" width="9" height="9" rx="2" fill="#f76e8a"/><rect x="516" y="58" width="9" height="9" rx="2" fill="#f76e8a"/><rect x="472" y="69" width="9" height="9" rx="2" fill="#f76e8a"/><rect x="483" y="69" width="9" height="9" rx="2" fill="#f76e8a"/><rect x="494" y="69" width="9" height="9" rx="2" fill="#f76e8a"/><rect x="505" y="69" width="9" height="9" rx="2" fill="#f76e8a"/><rect x="516" y="69" width="9" height="9" rx="2" fill="#f76e8a"/><rect x="472" y="80" width="9" height="9" rx="2" fill="#f76e8a"/><rect x="516" y="80" width="9" height="9" rx="2" fill="#f76e8a"/><rect x="472" y="91" width="9" height="9" rx="2" fill="#f76e8a"/><rect x="516" y="91" width="9" height="9" rx="2" fill="#f76e8a"/><rect x="472" y="102" width="9" height="9" rx="2" fill="#f76e8a"/><rect x="516" y="102" width="9" height="9" rx="2" fill="#f76e8a"/>
  <text x="688" y="142" font-family="monospace" font-size="9" fill="#2a3a2a" text-anchor="end">@RenukaBandepalli</text>
</svg>
