<svg width="680" height="120" viewBox="0 0 680 120" xmlns="http://www.w3.org/2000/svg">
  <defs>
    <filter id="led_glow">
      <feGaussianBlur stdDeviation="2" result="blur"/>
      <feMerge><feMergeNode in="blur"/><feMergeNode in="blur"/><feMergeNode in="SourceGraphic"/></feMerge>
    </filter>
    <filter id="outer_glow">
      <feGaussianBlur stdDeviation="4" result="blur"/>
      <feMerge><feMergeNode in="blur"/><feMergeNode in="blur"/><feMergeNode in="SourceGraphic"/></feMerge>
    </filter>
  </defs>

  <!-- background -->
  <rect width="680" height="120" fill="#0e0814"/>

  <!-- border box -->
  <rect x="8" y="8" width="664" height="104" rx="8" fill="none" stroke="#ff79c6" stroke-width="2" opacity="0.4"/>
  <rect x="10" y="10" width="660" height="100" rx="6" fill="none" stroke="#ff40a0" stroke-width="1" opacity="0.2"/>

  <!-- corner dots -->
  <rect x="14" y="14" width="4" height="4" fill="#ff79c6" opacity="0.6"/>
  <rect x="662" y="14" width="4" height="4" fill="#ff79c6" opacity="0.6"/>
  <rect x="14" y="102" width="4" height="4" fill="#ff79c6" opacity="0.6"/>
  <rect x="662" y="102" width="4" height="4" fill="#ff79c6" opacity="0.6"/>

  <!-- glow backdrop -->
  <rect x="147" y="18" width="386" height="84" rx="6" fill="#ff30a0" opacity="0.07" filter="url(#outer_glow)"/>

  <!-- R  startX=155 -->
  <g fill="#ff79c6" filter="url(#led_glow)">
    <rect x="155" y="24" width="9" height="9"/><rect x="166" y="24" width="9" height="9"/><rect x="177" y="24" width="9" height="9"/><rect x="188" y="24" width="9" height="9"/><rect x="199" y="24" width="9" height="9"/>
    <rect x="155" y="35" width="9" height="9"/><rect x="199" y="35" width="9" height="9"/>
    <rect x="155" y="46" width="9" height="9"/><rect x="166" y="46" width="9" height="9"/><rect x="177" y="46" width="9" height="9"/><rect x="188" y="46" width="9" height="9"/>
    <rect x="155" y="57" width="9" height="9"/><rect x="177" y="57" width="9" height="9"/>
    <rect x="155" y="68" width="9" height="9"/><rect x="188" y="68" width="9" height="9"/>
    <rect x="155" y="79" width="9" height="9"/><rect x="199" y="79" width="9" height="9"/>
  </g>

  <!-- E  startX=221 -->
  <g fill="#ff79c6" filter="url(#led_glow)">
    <rect x="221" y="24" width="9" height="9"/><rect x="232" y="24" width="9" height="9"/><rect x="243" y="24" width="9" height="9"/><rect x="254" y="24" width="9" height="9"/><rect x="265" y="24" width="9" height="9"/>
    <rect x="221" y="35" width="9" height="9"/>
    <rect x="221" y="46" width="9" height="9"/><rect x="232" y="46" width="9" height="9"/><rect x="243" y="46" width="9" height="9"/><rect x="254" y="46" width="9" height="9"/>
    <rect x="221" y="57" width="9" height="9"/>
    <rect x="221" y="68" width="9" height="9"/>
    <rect x="221" y="79" width="9" height="9"/><rect x="232" y="79" width="9" height="9"/><rect x="243" y="79" width="9" height="9"/><rect x="254" y="79" width="9" height="9"/><rect x="265" y="79" width="9" height="9"/>
  </g>

  <!-- N  startX=287 -->
  <g fill="#ff79c6" filter="url(#led_glow)">
    <rect x="287" y="24" width="9" height="9"/><rect x="331" y="24" width="9" height="9"/>
    <rect x="287" y="35" width="9" height="9"/><rect x="298" y="35" width="9" height="9"/><rect x="331" y="35" width="9" height="9"/>
    <rect x="287" y="46" width="9" height="9"/><rect x="309" y="46" width="9" height="9"/><rect x="331" y="46" width="9" height="9"/>
    <rect x="287" y="57" width="9" height="9"/><rect x="320" y="57" width="9" height="9"/><rect x="331" y="57" width="9" height="9"/>
    <rect x="287" y="68" width="9" height="9"/><rect x="331" y="68" width="9" height="9"/>
    <rect x="287" y="79" width="9" height="9"/><rect x="331" y="79" width="9" height="9"/>
  </g>

  <!-- U  startX=353 -->
  <g fill="#ff79c6" filter="url(#led_glow)">
    <rect x="353" y="24" width="9" height="9"/><rect x="397" y="24" width="9" height="9"/>
    <rect x="353" y="35" width="9" height="9"/><rect x="397" y="35" width="9" height="9"/>
    <rect x="353" y="46" width="9" height="9"/><rect x="397" y="46" width="9" height="9"/>
    <rect x="353" y="57" width="9" height="9"/><rect x="397" y="57" width="9" height="9"/>
    <rect x="353" y="68" width="9" height="9"/><rect x="397" y="68" width="9" height="9"/>
    <rect x="353" y="79" width="9" height="9"/><rect x="364" y="79" width="9" height="9"/><rect x="375" y="79" width="9" height="9"/><rect x="386" y="79" width="9" height="9"/><rect x="397" y="79" width="9" height="9"/>
  </g>

  <!-- K  startX=419 -->
  <g fill="#ff79c6" filter="url(#led_glow)">
    <rect x="419" y="24" width="9" height="9"/><rect x="452" y="24" width="9" height="9"/>
    <rect x="419" y="35" width="9" height="9"/><rect x="441" y="35" width="9" height="9"/>
    <rect x="419" y="46" width="9" height="9"/><rect x="430" y="46" width="9" height="9"/>
    <rect x="419" y="57" width="9" height="9"/><rect x="430" y="57" width="9" height="9"/>
    <rect x="419" y="68" width="9" height="9"/><rect x="441" y="68" width="9" height="9"/>
    <rect x="419" y="79" width="9" height="9"/><rect x="452" y="79" width="9" height="9"/>
  </g>

  <!-- A  startX=474 -->
  <g fill="#ff79c6" filter="url(#led_glow)">
    <rect x="485" y="24" width="9" height="9"/><rect x="496" y="24" width="9" height="9"/>
    <rect x="474" y="35" width="9" height="9"/><rect x="507" y="35" width="9" height="9"/>
    <rect x="474" y="46" width="9" height="9"/><rect x="485" y="46" width="9" height="9"/><rect x="496" y="46" width="9" height="9"/><rect x="507" y="46" width="9" height="9"/>
    <rect x="474" y="57" width="9" height="9"/><rect x="507" y="57" width="9" height="9"/>
    <rect x="474" y="68" width="9" height="9"/><rect x="507" y="68" width="9" height="9"/>
    <rect x="474" y="79" width="9" height="9"/><rect x="507" y="79" width="9" height="9"/>
  </g>

</svg>
